<?xml version="1.0" encoding="UTF-8"?>
<svg xmlns="http://www.w3.org/2000/svg" xmlns:xlink="http://www.w3.org/1999/xlink" width="24px" height="24px" viewBox="0 0 24 24" version="1.1">
<g id="surface1">
<path style=" stroke:none;fill-rule:nonzero;fill:rgb(25.882353%,52.156863%,95.686275%);fill-opacity:1;" d="M 15.5 13.019531 C 15.5 14.953125 13.933594 16.519531 12 16.519531 C 10.066406 16.519531 8.5 14.953125 8.5 13.019531 C 8.5 11.085938 10.066406 9.519531 12 9.519531 C 13.933594 9.519531 15.5 11.085938 15.5 13.019531 Z M 15.5 13.019531 "/>
<path style=" stroke:none;fill-rule:nonzero;fill:rgb(91.764706%,26.27451%,20.784314%);fill-opacity:1;" d="M 20 9 L 20 17 C 20 17.210938 19.957031 17.410156 19.898438 17.601562 C 19.703125 18.21875 19.21875 18.699219 18.605469 18.894531 C 18.414062 18.957031 18.210938 19 18 19 L 8.25 19 L 10.25 21 L 18 21 C 18.550781 21 19.078125 20.886719 19.558594 20.683594 C 20.035156 20.484375 20.46875 20.191406 20.828125 19.828125 C 21.011719 19.644531 21.171875 19.449219 21.316406 19.234375 C 21.605469 18.808594 21.8125 18.324219 21.917969 17.804688 C 21.972656 17.546875 22 17.273438 22 17 L 22 10.5 L 21.25 8.125 L 19.898438 8.398438 C 19.957031 8.589844 20 8.789062 20 9 Z M 20 9 "/>
<path style=" stroke:none;fill-rule:nonzero;fill:rgb(25.882353%,52.156863%,95.686275%);fill-opacity:1;" d="M 4 9 C 4 8.789062 4.042969 8.589844 4.101562 8.398438 C 4.296875 7.78125 4.78125 7.300781 5.394531 7.105469 C 5.589844 7.042969 5.789062 7 6 7 L 18 7 C 18.210938 7 18.410156 7.042969 18.601562 7.101562 L 18.625 5.625 L 16.5 5 L 14.5 3 L 9.5 3 L 7.5 5 L 6 5 C 3.792969 5 2 6.792969 2 9 L 2 13 L 4 15 Z M 4 9 "/>
<path style=" stroke:none;fill-rule:nonzero;fill:rgb(20.392157%,65.882353%,32.54902%);fill-opacity:1;" d="M 18 5 L 16.5 5 L 18.605469 7.105469 C 18.757812 7.152344 18.902344 7.21875 19.039062 7.300781 C 19.308594 7.46875 19.535156 7.695312 19.699219 7.964844 C 19.78125 8.097656 19.847656 8.242188 19.898438 8.398438 L 22 10.5 L 22 9 C 22 6.792969 20.207031 5 18 5 Z M 18 5 "/>
<path style=" stroke:none;fill-rule:nonzero;fill:rgb(98.431373%,73.72549%,1.568627%);fill-opacity:1;" d="M 6 21 L 10.984375 21 L 8.984375 19 L 6 19 C 4.898438 19 4 18.101562 4 17 L 4 14.015625 L 2 12.015625 L 2 17 C 2 19.207031 3.792969 21 6 21 Z M 6 21 "/>
</g>
</svg>
